<?xml version="1.0" ?><!DOCTYPE svg  PUBLIC '-//W3C//DTD SVG 1.1//EN'  'http://www.w3.org/Graphics/SVG/1.1/DTD/svg11.dtd'><svg enable-background="new 0 0 64 64" height="64px" id="Layer_1" version="1.1" viewBox="0 0 64 64" width="64px" xml:space="preserve" xmlns="http://www.w3.org/2000/svg" xmlns:xlink="http://www.w3.org/1999/xlink"><g><path d="M2.719,45.807c0-16.171,13.11-29.282,29.281-29.281   c16.172,0,29.281,13.11,29.281,29.281H2.721H2.719z" fill="none" stroke="#000000" stroke-miterlimit="10"/><path d="M28.28,45.807c0-2.055,1.666-3.72,3.72-3.72s3.721,1.665,3.721,3.72" fill="none" stroke="#000000" stroke-miterlimit="10"/><path d="M5.763,45.688C5.763,31.197,17.51,19.45,32,19.45   c14.49,0,26.235,11.747,26.235,26.237" fill="none" stroke="#000000" stroke-miterlimit="10"/><line fill="none" stroke="#000000" stroke-miterlimit="10" x1="32" x2="32" y1="19.45" y2="23.606"/><line fill="none" stroke="#000000" stroke-miterlimit="10" x1="51.63" x2="48.405" y1="28.242" y2="31.113"/><line fill="none" stroke="#000000" stroke-miterlimit="10" x1="12.403" x2="15.628" y1="28.242" y2="31.113"/><line fill="none" stroke="#000000" stroke-miterlimit="10" x1="6.012" x2="10.281" y1="42.086" y2="42.086"/><line fill="none" stroke="#000000" stroke-miterlimit="10" x1="53.533" x2="57.803" y1="42.087" y2="42.087"/><line fill="none" stroke="#000000" stroke-miterlimit="10" x1="30.422" x2="22.761" y1="42.445" y2="26.126"/></g></svg>