<?xml version="1.0" ?><!DOCTYPE svg  PUBLIC '-//W3C//DTD SVG 1.1//EN'  'http://www.w3.org/Graphics/SVG/1.1/DTD/svg11.dtd'><svg enable-background="new 0 0 64 64" height="64px" id="Layer_1" version="1.1" viewBox="0 0 64 64" width="64px" xml:space="preserve" xmlns="http://www.w3.org/2000/svg" xmlns:xlink="http://www.w3.org/1999/xlink"><g><circle cx="27.016" cy="53.25" fill="#" r="1.816" stroke="#000000" stroke-miterlimit="10" stroke-width="0.9561"/><polyline fill="none" points="37.395,49.248 9.096,49.248    9.096,6.043 44.937,6.044 44.937,22.396  " stroke="#000000" stroke-miterlimit="10" stroke-width="0.9561"/><line fill="none" stroke="#3ac8d6" stroke-miterlimit="10" stroke-width="0.9561" x1="17.268" x2="13.844" y1="11.235" y2="14.657"/><line fill="none" stroke="#000000" stroke-miterlimit="10" stroke-width="0.9561" x1="21.069" x2="13.68" y1="11.235" y2="18.624"/><polyline fill="none" points="37.395,56.857 4.205,56.857 4.205,1    49.827,1 49.827,22.396  " stroke="#000000" stroke-miterlimit="10" stroke-width="0.9561"/><rect fill="none" height="29.986" stroke="red" stroke-miterlimit="10" stroke-width="0.9561" width="18.55" x="39.32" y="27.117"/><line fill="none" stroke="#000000" stroke-miterlimit="10" stroke-width="0.9561" x1="46.421" x2="50.89" y1="24.864" y2="24.864"/><line fill="none" stroke="#000000" stroke-miterlimit="10" stroke-width="0.9561" x1="43.843" x2="41.567" y1="29.836" y2="32.325"/><line fill="none" stroke="#000000" stroke-miterlimit="10" stroke-width="0.9561" x1="46.366" x2="41.457" y1="29.836" y2="35.207"/><polyline fill="none" points="37.395,56.857 37.395,22.396    49.826,22.396  " stroke="#000000" stroke-miterlimit="10" stroke-width="0.9561"/><polyline fill="none" points="49.826,22.396 59.796,22.396    59.796,63 37.395,63 37.395,56.857  " stroke="#000000" stroke-miterlimit="10" stroke-width="0.9561"/><circle cx="48.267" cy="60.077" fill="none" r="1.462" stroke="#000000" stroke-miterlimit="10" stroke-width="0.9561"/></g></svg>