<?xml version="1.0" ?><!DOCTYPE svg  PUBLIC '-//W3C//DTD SVG 1.1//EN'  'http://www.w3.org/Graphics/SVG/1.1/DTD/svg11.dtd'><svg enable-background="new 0 0 64 64" height="64px" id="Layer_1" version="1.1" viewBox="0 0 64 64" width="64px" xml:space="preserve" xmlns="http://www.w3.org/2000/svg" xmlns:xlink="http://www.w3.org/1999/xlink"><rect fill="none" height="53.724" stroke="#000000" stroke-miterlimit="10" stroke-width="0.9118" transform="matrix(0.8901 0.4558 -0.4558 0.8901 19.9619 -8.5844)" width="8.748" x="23.406" y="10.236"/><line fill="none" stroke="#000000" stroke-miterlimit="10" stroke-width="0.9118" x1="23.887" x2="31.674" y1="35.104" y2="39.091"/><polygon fill="none" points="53.552,18.26 56.029,16.352 56.037,19.478 58.617,21.243   55.646,22.217 54.765,25.217 52.92,22.693 49.795,22.781 51.627,20.247 50.577,17.302 " stroke="#000000" stroke-miterlimit="10"/><polygon fill="none" points="31.54,4.897 33.28,3.557 33.286,5.753   35.099,6.992 33.012,7.677 32.393,9.784 31.097,8.011 28.902,8.073 30.188,6.293 29.451,4.224 " stroke="#000000" stroke-miterlimit="10" stroke-width="0.7024"/><polygon fill="none" points="47.002,7.722 48.367,6.67   48.372,8.394 49.795,9.367 48.156,9.904 47.671,11.558 46.653,10.166 44.931,10.214 45.94,8.817 45.361,7.194 " stroke="#000000" stroke-miterlimit="10" stroke-width="0.5514"/><polygon fill="none" points="19.449,12.737 21.925,10.829 21.934,13.956 24.514,15.721   21.543,16.695 20.662,19.695 18.817,17.17 15.692,17.258 17.523,14.725 16.473,11.78 " stroke="#000000" stroke-miterlimit="10"/><polygon fill="none" points="41.312,4.064 42.541,3.118   42.546,4.668 43.826,5.544 42.352,6.027 41.915,7.515 40.999,6.263 39.449,6.307 40.357,5.05 39.837,3.589 " stroke="#000000" stroke-miterlimit="10" stroke-width="0.4961"/></svg>