<?xml version="1.0" ?><!DOCTYPE svg  PUBLIC '-//W3C//DTD SVG 1.1//EN'  'http://www.w3.org/Graphics/SVG/1.1/DTD/svg11.dtd'><svg enable-background="new 0 0 64 64" height="64px" id="Layer_1" version="1.1" viewBox="0 0 64 64" width="64px" xml:space="preserve" xmlns="http://www.w3.org/2000/svg" xmlns:xlink="http://www.w3.org/1999/xlink"><g><path d="M40.882,19.333v10.142   c0,0,10.733,18.814,11.801,21.215c1.066,2.402,5.871,11.074-4.805,12.811H32H16.122c-10.675-1.736-5.872-10.408-4.804-12.811   c1.067-2.401,11.799-21.215,11.799-21.215V19.333" fill="none" stroke="#000000" stroke-miterlimit="10" stroke-width="0.9051"/><line fill="none" stroke="#000000" stroke-miterlimit="10" stroke-width="0.9051" x1="17.38" x2="46.682" y1="39.547" y2="39.547"/><circle cx="25.929" cy="49.823" fill="none" r="4.603" stroke="#000000" stroke-miterlimit="10" stroke-width="0.9051"/><circle cx="32.667" cy="33.248" fill="none" r="2.881" stroke="#000000" stroke-miterlimit="10" stroke-width="0.9051"/><path d="M33.378,11.932   c-0.374-0.554-0.592-1.221-0.592-1.94c0-1.916,1.553-3.469,3.469-3.469c1.915,0,3.47,1.553,3.47,3.469   c0,0.713-0.215,1.376-0.585,1.928" fill="none" stroke="#000000" stroke-miterlimit="10" stroke-width="0.9051"/><circle cx="29.618" cy="2.928" fill="none" r="2.429" stroke="#000000" stroke-miterlimit="10" stroke-width="0.9051"/><rect fill="none" height="7.401" stroke="#000000" stroke-linecap="square" stroke-miterlimit="10" stroke-width="0.9051" width="21.743" x="21.128" y="12.227"/></g></svg>